<?xml version="1.0" standalone="no"?>
<!DOCTYPE svg PUBLIC "-//W3C//DTD SVG 20010904//EN"
 "http://www.w3.org/TR/2001/REC-SVG-20010904/DTD/svg10.dtd">
<svg version="1.0" xmlns="http://www.w3.org/2000/svg"
 width="512.000000pt" height="512.000000pt" viewBox="0 0 512.000000 512.000000"
 preserveAspectRatio="xMidYMid meet">

<g transform="translate(0.000000,512.000000) scale(0.100000,-0.100000)"
fill="#ffffff" stroke="none">
<path d="M2629 4946 c-2 -2 -87 -6 -189 -9 -102 -3 -192 -8 -200 -11 -8 -3
-46 -10 -85 -15 -79 -11 -203 -35 -285 -56 -30 -8 -69 -16 -86 -19 -18 -3 -49
-17 -69 -31 -21 -14 -44 -25 -51 -25 -7 0 -74 -29 -149 -65 -75 -36 -141 -65
-147 -65 -6 0 -19 -6 -27 -14 -27 -23 -120 -86 -128 -86 -5 0 -26 -14 -47 -30
-22 -17 -46 -30 -53 -30 -7 0 -13 -5 -13 -10 0 -6 -27 -30 -60 -54 -33 -25
-76 -64 -96 -87 -19 -23 -51 -54 -72 -69 -54 -40 -93 -85 -192 -216 -14 -18
-52 -68 -85 -111 -79 -103 -108 -149 -183 -295 -22 -43 -46 -95 -52 -115 -7
-21 -16 -42 -20 -48 -14 -18 -80 -184 -80 -201 0 -9 -11 -40 -24 -68 -13 -28
-27 -82 -31 -121 -4 -38 -11 -80 -16 -93 -16 -41 -43 -341 -41 -457 2 -176 10
-308 21 -340 6 -16 22 -79 36 -140 40 -173 55 -227 94 -333 16 -46 39 -98 50
-116 12 -18 21 -45 21 -60 0 -14 5 -26 10 -26 13 0 13 117 0 125 -6 3 -10 21
-10 39 0 17 -4 36 -9 42 -10 11 -46 112 -60 169 -5 22 -19 74 -31 115 -21 73
-28 119 -51 320 -19 172 -13 482 11 544 5 15 10 45 10 66 0 21 5 51 11 67 6
15 13 46 15 67 4 36 14 75 34 131 4 11 26 79 50 150 23 72 54 145 67 163 13
17 29 47 34 65 15 46 58 127 86 160 12 16 23 35 23 42 0 7 6 20 14 27 7 8 21
29 31 48 10 19 34 51 54 72 20 21 59 68 86 105 28 36 59 76 70 88 105 114 140
148 205 203 102 86 97 82 170 129 36 23 72 48 80 56 8 8 40 27 70 42 30 15 68
37 85 49 31 22 115 65 127 66 5 0 42 16 84 35 41 19 79 35 82 35 4 0 18 6 32
13 14 7 54 19 90 27 36 7 70 16 75 20 6 4 30 11 55 15 25 4 79 15 120 25 120
30 181 40 245 41 33 0 110 1 170 2 148 2 310 -13 478 -43 32 -6 62 -8 66 -6 4
3 46 -8 92 -24 46 -17 94 -30 106 -30 12 0 25 -4 28 -10 3 -5 17 -10 30 -10
13 0 26 -4 30 -9 3 -5 36 -19 73 -32 37 -12 79 -30 94 -40 14 -11 29 -19 33
-19 14 0 121 -55 139 -72 11 -10 27 -18 35 -18 22 -1 53 -20 95 -57 19 -18 38
-33 40 -33 12 0 96 -62 96 -71 0 -5 10 -9 21 -9 12 0 41 -19 65 -42 47 -47 87
-83 176 -161 32 -28 58 -57 58 -64 0 -7 27 -39 60 -70 33 -31 60 -62 60 -69 0
-8 16 -31 35 -53 19 -21 35 -43 35 -49 0 -5 6 -12 13 -15 7 -3 29 -37 47 -76
19 -39 37 -71 41 -71 7 0 69 -97 69 -109 0 -5 8 -19 18 -32 10 -13 26 -46 36
-74 24 -67 30 -82 55 -136 11 -25 21 -58 21 -73 0 -15 9 -48 20 -74 29 -69 73
-289 71 -356 0 -16 4 -35 10 -42 11 -14 16 -379 7 -469 -5 -46 -24 -162 -47
-290 -12 -64 -38 -161 -51 -185 -6 -10 -10 -29 -10 -42 0 -27 -35 -127 -50
-142 -5 -5 -10 -22 -10 -37 0 -15 -4 -31 -10 -34 -11 -7 -140 -267 -140 -282
0 -5 -11 -20 -25 -33 -14 -13 -34 -42 -45 -64 -11 -23 -39 -63 -63 -91 -24
-27 -68 -81 -97 -120 -30 -38 -67 -81 -83 -94 -16 -13 -32 -32 -35 -41 -13
-32 -245 -230 -312 -266 -19 -11 -49 -29 -67 -42 -17 -12 -35 -22 -40 -22 -6
0 -18 -9 -28 -20 -10 -12 -82 -52 -160 -90 -78 -39 -154 -83 -170 -100 l-28
-29 39 6 c21 4 71 24 109 45 39 21 79 38 89 38 11 0 27 6 35 14 16 15 61 41
163 95 31 17 63 39 70 48 16 22 134 112 156 120 9 3 35 24 57 47 22 22 56 55
75 72 52 47 182 192 205 228 11 18 26 39 32 47 45 52 83 102 83 110 0 5 16 25
35 45 19 19 35 41 35 49 0 8 20 43 45 78 25 36 45 70 45 77 0 12 11 37 76 175
54 115 131 362 146 470 5 39 13 97 18 130 32 233 34 447 5 584 -8 40 -15 86
-15 103 0 17 -4 47 -10 67 -5 20 -21 88 -36 151 -15 63 -31 119 -35 125 -5 5
-9 19 -9 32 0 13 -16 55 -35 93 -19 38 -35 81 -35 95 0 14 -9 33 -20 42 -11
10 -20 26 -20 37 0 10 -14 44 -31 75 -34 60 -46 79 -127 207 -29 44 -52 84
-52 89 0 4 -21 32 -47 60 -27 29 -84 92 -128 141 -44 48 -96 102 -115 119 -19
16 -57 53 -85 80 -28 28 -66 61 -84 75 -18 14 -56 44 -84 68 -28 23 -56 42
-62 42 -7 0 -20 9 -30 20 -10 11 -24 20 -31 20 -7 0 -34 15 -60 33 -64 45 -93
60 -139 76 -22 8 -54 24 -70 37 -17 13 -48 27 -70 32 -22 5 -69 23 -105 39
-68 32 -161 63 -189 63 -9 0 -41 7 -71 15 -30 9 -65 18 -78 20 -12 2 -44 8
-70 14 -40 9 -139 22 -258 35 -17 2 -40 7 -51 10 -11 3 -21 4 -24 2z"/>
<path d="M2618 4803 c-24 -4 -27 -9 -33 -61 -3 -31 -9 -82 -12 -112 -8 -65 -4
-162 7 -173 9 -10 69 -16 88 -9 6 2 12 21 12 42 0 68 11 100 33 100 17 0 19
-5 15 -42 -3 -24 -2 -56 1 -73 5 -25 12 -31 46 -36 22 -4 45 -4 52 -2 17 7 18
154 1 171 -9 9 -8 16 5 30 26 28 22 88 -8 117 -13 14 -35 25 -48 25 -14 0 -30
7 -37 15 -12 15 -59 18 -122 8z m120 -98 c3 -26 -13 -50 -27 -41 -6 4 -11 21
-11 37 0 24 4 30 18 27 9 -2 18 -12 20 -23z"/>
<path d="M2253 4786 c-62 -14 -67 -71 -6 -71 l28 0 8 -115 c4 -63 13 -128 19
-143 11 -27 13 -28 56 -22 74 11 75 12 68 69 -3 28 -9 90 -13 138 -5 80 -4 88
13 93 36 12 49 22 49 41 0 17 -9 19 -90 20 -49 0 -109 -4 -132 -10z"/>
<path d="M3045 4734 c-9 -9 -27 -38 -40 -64 -14 -27 -29 -51 -35 -55 -5 -3
-10 -17 -10 -31 0 -14 -10 -35 -23 -48 -28 -28 -50 -95 -37 -111 5 -7 28 -18
50 -25 41 -14 70 -4 70 25 0 16 25 26 45 19 10 -4 12 -15 9 -33 -5 -24 -1 -30
29 -44 19 -10 46 -17 60 -17 32 0 34 10 43 200 7 161 7 159 -56 178 -73 21
-88 22 -105 6z m49 -163 c-4 -9 -6 -28 -5 -43 1 -30 -25 -40 -35 -14 -8 20 23
89 36 81 6 -4 8 -14 4 -24z"/>
<path d="M1830 4636 c-35 -10 -52 -22 -74 -54 l-29 -41 25 -48 c19 -38 23 -53
15 -71 -14 -31 14 -89 49 -102 38 -15 91 -2 130 32 23 21 39 28 54 23 11 -3
37 -1 57 6 21 6 44 13 51 15 10 3 8 11 -7 33 -12 16 -21 42 -21 58 0 41 -8 45
-39 23 -44 -33 -95 -4 -71 40 16 30 12 47 -18 69 -38 27 -69 31 -122 17z m48
-74 c3 -16 -2 -22 -17 -22 -24 0 -35 15 -27 36 9 23 40 13 44 -14z m30 -149
c-2 -10 -10 -18 -18 -18 -8 0 -16 8 -18 18 -2 12 3 17 18 17 15 0 20 -5 18
-17z"/>
<path d="M3373 4628 c-12 -16 -64 -128 -87 -188 -10 -25 -25 -60 -32 -79 -8
-18 -14 -35 -12 -36 6 -6 101 -55 102 -53 1 2 11 18 24 35 12 18 25 47 29 65
3 18 11 44 18 58 7 14 21 43 30 65 9 22 20 48 25 57 18 32 11 45 -32 63 -24
10 -46 20 -49 22 -3 2 -10 -2 -16 -9z"/>
<path d="M3599 4514 c-14 -17 -21 -29 -53 -84 -10 -18 -27 -42 -37 -53 -10
-12 -19 -26 -19 -33 0 -7 -6 -17 -14 -21 -13 -8 -52 -81 -45 -86 2 -2 17 -13
33 -25 16 -12 32 -22 36 -22 3 0 21 21 40 46 22 31 36 42 42 36 7 -7 3 -23
-12 -47 -29 -46 -18 -73 40 -104 51 -26 56 -24 106 67 21 37 42 71 46 77 5 5
24 34 43 63 l34 52 -32 30 c-44 41 -60 38 -78 -12 -25 -68 -45 -56 -41 23 4
64 3 67 -26 88 -36 25 -45 26 -63 5z"/>
<path d="M1418 4495 c-20 -8 -49 -22 -65 -33 -15 -11 -49 -33 -75 -49 l-46
-30 39 -68 c22 -38 51 -82 65 -98 13 -15 24 -32 24 -37 0 -13 49 -84 65 -92 7
-5 23 1 38 12 14 11 29 20 34 20 6 0 15 11 21 24 10 22 7 30 -28 73 -44 53
-50 73 -21 73 24 0 60 -44 68 -82 8 -39 15 -41 66 -19 48 21 65 48 48 79 -13
25 -98 102 -112 102 -7 0 -9 9 -5 24 6 26 -25 80 -59 101 -16 10 -27 10 -57 0z
m12 -109 c7 -9 8 -21 3 -30 -8 -14 -11 -14 -31 0 -12 8 -22 22 -22 30 0 18 34
18 50 0z"/>
<path d="M2577 4279 c-39 -32 -47 -65 -26 -111 8 -19 6 -32 -13 -68 -23 -45
-23 -45 -78 -45 -30 0 -98 5 -150 9 -52 5 -126 10 -165 11 -38 1 -101 5 -140
9 -88 9 -141 -7 -172 -53 -18 -27 -20 -37 -11 -56 17 -37 38 -39 49 -5 7 20
21 32 42 39 61 19 96 22 115 12 11 -6 73 -13 138 -16 66 -2 142 -8 169 -12 28
-3 111 -7 185 -8 193 -2 587 -22 600 -30 6 -4 21 -8 33 -9 90 -11 128 -20 137
-31 30 -37 -38 -96 -89 -77 -70 27 -136 36 -246 37 -128 0 -214 -14 -253 -43
-39 -28 -86 -52 -103 -52 -8 0 -26 14 -38 31 l-23 31 21 22 c47 50 11 111 -50
86 -29 -13 -34 -26 -30 -83 2 -17 -7 -39 -23 -58 -30 -35 -33 -70 -10 -94 13
-13 33 -16 88 -14 39 1 78 1 86 -2 11 -3 14 3 12 22 -2 20 4 32 27 49 74 52
280 84 306 47 12 -17 15 -17 60 -2 27 10 59 14 74 10 95 -23 101 -26 101 -49
0 -15 -20 -40 -61 -77 -96 -86 -92 -84 -274 -81 -88 1 -182 5 -210 7 -27 2
-102 7 -165 10 -63 3 -133 10 -155 15 -22 5 -69 12 -104 15 -36 4 -77 13 -92
21 -16 8 -37 14 -49 14 -13 0 -28 12 -38 29 -9 16 -29 37 -44 46 -16 9 -47 41
-70 71 -28 38 -44 52 -51 45 -14 -14 4 -48 81 -146 35 -44 67 -85 70 -91 20
-30 84 -55 154 -59 40 -3 87 -7 103 -10 17 -3 80 -9 140 -13 l110 -7 14 -45
c8 -25 18 -46 23 -48 13 -6 9 -31 -9 -58 -13 -21 -14 -31 -5 -61 9 -28 8 -42
-3 -64 -18 -33 -19 -65 -4 -107 10 -28 8 -35 -15 -63 -14 -17 -26 -38 -26 -47
-1 -9 -18 -48 -38 -87 -32 -61 -41 -70 -67 -73 -85 -8 -96 -27 -85 -155 6 -64
11 -81 28 -93 l22 -15 -20 -27 c-22 -31 -50 -114 -50 -153 0 -14 11 -40 25
-59 28 -37 51 -96 60 -152 9 -57 28 -48 20 10 -10 69 -32 139 -55 177 -19 31
-20 36 -6 69 8 19 18 56 21 81 4 25 12 45 19 45 6 0 21 3 32 6 20 5 39 -15 87
-93 4 -7 -7 -20 -28 -33 -40 -24 -46 -57 -17 -83 29 -27 39 -20 46 28 7 46 26
63 26 23 0 -32 -25 -110 -32 -103 -10 11 -46 -13 -53 -35 -8 -24 11 -60 31
-60 12 0 15 6 10 25 -5 18 -2 27 9 31 25 10 55 -25 55 -64 0 -19 8 -75 17
-123 9 -49 14 -91 11 -94 -3 -3 -28 0 -57 6 -51 11 -62 24 -38 48 10 11 6 12
-23 6 -45 -9 -50 -13 -50 -34 0 -36 34 -53 114 -56 73 -2 126 -21 126 -45 0
-11 -2 -11 -124 -13 -52 -1 -81 -6 -83 -14 -9 -27 127 -35 270 -16 37 5 69 7
72 5 3 -3 2 -15 -1 -27 -10 -39 57 -127 119 -159 51 -25 54 -26 118 -12 41 8
89 28 125 51 61 38 164 132 164 149 0 5 6 17 14 25 8 9 19 44 25 78 8 53 6 72
-14 145 -32 113 -55 176 -79 219 -27 47 -151 209 -210 274 -52 58 -61 47 -13
-17 64 -85 157 -235 191 -308 35 -78 76 -235 76 -295 0 -72 -107 -194 -214
-245 -62 -29 -77 -32 -128 -27 -132 12 -179 102 -79 150 21 10 27 20 29 54 l3
43 -38 -3 -38 -2 0 55 c0 60 -16 77 -28 30 -9 -36 -30 -39 -45 -7 -9 19 -11
20 -11 3 -1 -10 4 -37 11 -59 11 -35 10 -41 -7 -53 -75 -55 -160 83 -172 276
-4 65 -1 109 8 140 7 25 14 58 15 75 3 35 62 95 94 95 11 0 20 6 20 14 0 8 14
26 31 39 24 18 30 30 25 43 -7 18 -8 18 -17 1 -11 -19 -79 -57 -103 -57 -9 0
-20 -9 -26 -19 -13 -25 -77 -64 -94 -58 -13 5 -43 62 -67 130 -11 32 -11 41 0
60 13 20 12 21 -1 9 -9 -7 -18 -30 -22 -52 -6 -38 -8 -40 -40 -40 -30 0 -36 4
-46 34 -9 29 -15 102 -11 154 1 18 174 17 190 -1 8 -11 6 -18 -9 -32 -11 -10
-20 -23 -20 -29 0 -6 5 -5 12 2 7 7 18 12 25 12 23 0 14 -36 -17 -63 -41 -37
-38 -61 9 -92 37 -23 41 -23 70 -9 31 16 46 47 39 81 -3 13 -11 17 -33 15 -34
-4 -47 -19 -39 -44 6 -21 -5 -23 -31 -5 -20 16 -25 9 55 78 l35 30 25 -28 c14
-16 32 -39 40 -51 14 -21 17 -22 40 -10 67 37 90 54 90 65 0 7 9 17 20 23 11
6 20 17 20 26 0 16 -52 72 -94 99 -17 11 -25 24 -21 34 4 14 -1 16 -28 13 -27
-3 -35 1 -45 20 -6 12 -16 30 -21 38 -5 8 -24 45 -42 82 l-33 67 24 26 c27 29
30 68 7 114 -15 30 -15 35 -1 57 10 14 14 35 11 52 -4 18 1 34 13 47 9 11 22
34 27 50 9 28 15 31 69 38 32 4 70 3 84 -1 14 -5 71 -7 127 -6 78 2 111 8 141
23 44 23 127 103 148 143 20 39 54 45 103 17 23 -12 41 -26 41 -30 0 -4 8 -10
19 -14 33 -10 170 -153 198 -207 26 -50 28 -60 28 -183 0 -128 -1 -131 -35
-200 -41 -84 -100 -159 -171 -220 -49 -42 -65 -50 -96 -46 -6 1 -14 -7 -18
-19 -9 -28 -129 -84 -165 -77 -34 7 -71 -26 -52 -45 14 -14 127 12 207 48 104
47 275 197 345 305 65 100 84 157 77 234 -10 102 -73 259 -122 305 -14 13 -25
29 -25 36 0 7 -8 15 -17 18 -10 3 -29 16 -43 28 -33 30 -140 103 -162 111 -25
9 -22 33 7 71 31 41 31 63 1 100 -26 31 -7 27 -316 56 -69 6 -132 14 -140 17
-8 4 -62 8 -119 10 -58 1 -108 6 -112 10 -4 5 -10 27 -14 51 -6 35 -4 42 9 42
18 0 36 38 36 74 0 22 -68 96 -88 96 -4 0 -24 -14 -45 -31z m-37 -370 c0 -5
-4 -9 -10 -9 -5 0 -10 7 -10 16 0 8 5 12 10 9 6 -3 10 -10 10 -16z m-13 -115
c9 -24 -14 -66 -35 -62 -16 4 -20 32 -7 66 6 17 34 15 42 -4z m101 -264 c5
-47 -14 -61 -26 -19 -5 19 -7 40 -4 47 8 23 27 6 30 -28z m6 -514 c21 -41 36
-82 33 -90 -9 -22 -71 -46 -104 -40 -53 9 -63 15 -63 38 0 44 72 182 89 172 4
-3 24 -39 45 -80z m76 -109 c0 -20 -57 -67 -80 -67 -30 0 -25 14 18 49 40 33
62 39 62 18z m103 -62 c21 -20 11 -47 -23 -67 -26 -15 -31 -15 -64 0 -26 12
-35 23 -33 37 2 16 8 19 38 17 23 -2 40 2 49 12 15 19 15 19 33 1z"/>
<path d="M3885 4227 c-38 -40 -82 -80 -97 -89 -15 -10 -28 -24 -28 -32 0 -7
-11 -21 -25 -30 -30 -20 -32 -33 -6 -41 10 -3 21 -14 24 -25 3 -11 13 -23 24
-26 10 -4 37 -22 60 -41 41 -33 43 -33 68 -17 14 9 25 19 25 23 0 4 -16 22
-35 41 -33 32 -34 35 -18 52 21 24 50 23 63 -2 17 -33 80 -24 80 12 0 10 -12
30 -26 43 -14 13 -24 32 -22 42 4 24 60 30 81 8 15 -14 18 -13 33 10 9 14 15
27 13 28 -2 2 -29 23 -59 48 -30 25 -62 50 -70 56 -13 10 -28 -1 -85 -60z"/>
<path d="M1053 4237 c-34 -29 -64 -60 -68 -70 -5 -13 8 -34 47 -76 29 -32 80
-88 113 -125 33 -36 65 -66 70 -66 6 0 25 15 42 33 18 17 50 49 70 69 31 31
36 41 27 55 -23 36 -42 39 -67 9 -24 -28 -25 -28 -51 -11 -29 19 -34 46 -11
65 18 15 19 21 2 44 -12 17 -14 17 -45 -1 -31 -18 -32 -18 -54 4 l-22 23 22
23 c25 26 28 47 10 65 -16 16 -15 17 -85 -41z"/>
<path d="M869 4058 c-7 -13 -23 -36 -37 -53 l-24 -29 38 -34 c59 -50 104 -96
104 -104 0 -17 -30 -6 -79 26 -28 19 -64 37 -79 41 -26 5 -34 1 -63 -36 l-33
-42 30 -23 c16 -13 36 -24 44 -24 8 -1 31 -9 50 -20 19 -10 51 -26 70 -35 19
-9 52 -27 72 -41 40 -28 73 -26 83 6 3 10 17 25 30 34 14 9 25 23 25 30 0 7 7
19 15 26 24 20 18 37 -25 76 -22 20 -40 42 -40 49 0 8 -12 23 -27 33 -16 11
-50 47 -78 81 -27 33 -53 61 -57 61 -4 0 -13 -10 -19 -22z"/>
<path d="M4145 4021 c-25 -21 -59 -45 -73 -52 -15 -7 -46 -30 -69 -51 -24 -21
-49 -38 -58 -38 -19 0 -20 -34 0 -50 8 -7 15 -18 15 -24 0 -33 71 -43 84 -11
4 11 78 55 93 55 2 0 3 -9 3 -19 0 -22 -34 -52 -80 -71 -38 -16 -38 -28 4 -74
l35 -37 38 20 c44 23 64 44 78 86 8 24 16 30 44 31 67 3 100 84 55 136 -10 13
-28 39 -38 58 -18 32 -63 79 -77 80 -4 0 -28 -17 -54 -39z m105 -106 c0 -8
-12 -22 -26 -31 -21 -14 -27 -15 -34 -4 -11 18 -3 36 23 47 25 12 37 8 37 -12z"/>
<path d="M2272 3898 c-29 -17 -57 -39 -63 -50 -9 -17 -8 -18 9 -9 10 5 24 17
32 25 7 9 20 16 29 16 23 0 55 24 50 37 -2 6 -26 -2 -57 -19z"/>
<path d="M2150 3905 c-21 -25 -1 -31 23 -7 17 18 18 22 5 22 -8 0 -21 -7 -28
-15z"/>
<path d="M2158 3823 c-9 -2 -19 -11 -22 -20 -5 -11 -2 -14 10 -9 8 3 19 6 24
6 4 0 10 7 14 15 5 15 3 16 -26 8z"/>
<path d="M2925 3770 c-3 -5 -1 -10 4 -10 6 0 11 5 11 10 0 6 -2 10 -4 10 -3 0
-8 -4 -11 -10z"/>
<path d="M2855 3730 c-27 -30 -12 -34 15 -5 13 14 19 25 13 25 -5 0 -18 -9
-28 -20z"/>
<path d="M610 3683 l-20 -46 32 -28 c18 -16 38 -28 45 -29 7 0 16 -6 20 -12 9
-15 37 -34 73 -49 14 -6 48 -22 77 -36 29 -14 57 -22 63 -18 17 11 53 94 47
110 -4 8 -48 35 -99 60 -51 25 -100 49 -108 54 -27 18 -83 41 -96 41 -7 0 -22
-21 -34 -47z"/>
<path d="M1775 3683 c-68 -21 -155 -63 -182 -88 -12 -11 -42 -36 -67 -55 -25
-19 -45 -40 -45 -46 -1 -6 -12 -22 -25 -35 -15 -16 -29 -47 -37 -85 -11 -52
-10 -70 6 -134 27 -112 97 -209 151 -210 29 0 50 25 32 37 -23 14 -84 96 -108
145 -19 39 -22 57 -17 108 3 37 12 69 22 80 14 16 21 34 24 62 3 31 176 168
211 168 11 0 110 39 120 47 5 4 -21 23 -30 22 -3 -1 -27 -8 -55 -16z"/>
<path d="M4133 3598 c-39 -28 -42 -54 -8 -70 20 -9 33 -8 65 7 22 10 40 20 40
22 0 11 -45 63 -55 63 -5 0 -25 -10 -42 -22z"/>
<path d="M4495 3496 c-37 -16 -79 -88 -71 -120 8 -33 -20 -85 -50 -92 -14 -4
-27 -4 -30 -2 -10 11 9 37 31 42 22 6 22 8 12 43 -11 40 -34 73 -49 73 -5 0
-23 -13 -39 -29 -25 -25 -29 -37 -29 -81 0 -52 12 -75 90 -167 16 -19 43 -16
93 12 51 29 52 32 56 135 3 78 9 90 49 90 29 0 31 -44 2 -60 -25 -14 -25 -25
1 -61 23 -32 50 -37 74 -13 13 13 15 28 9 73 -7 63 -31 108 -75 146 -35 29
-34 29 -74 11z"/>
<path d="M523 3472 c-12 -9 -27 -28 -32 -42 -6 -14 -15 -32 -20 -40 -24 -43
-39 -78 -46 -107 -6 -32 -5 -33 57 -61 35 -16 75 -32 90 -35 15 -4 33 -14 41
-22 8 -8 32 -19 54 -24 21 -5 48 -13 60 -16 19 -6 24 -2 33 21 6 16 17 41 26
56 22 40 6 63 -43 65 -50 2 -96 20 -90 36 6 18 76 9 104 -13 13 -10 32 -16 42
-13 21 5 56 85 48 107 -8 19 -134 58 -155 47 -13 -7 -27 -1 -56 25 -43 38 -79
43 -113 16z m46 -98 c32 -7 44 -38 19 -46 -22 -8 -68 16 -68 34 0 20 4 21 49
12z"/>
<path d="M1893 3414 c-7 -3 -13 -14 -13 -25 0 -14 7 -19 30 -19 32 0 36 -9 20
-38 -5 -9 -18 -38 -30 -64 -11 -26 -24 -49 -29 -52 -16 -10 -81 -136 -81 -156
0 -35 -45 -59 -109 -58 -39 1 -72 -6 -97 -18 -33 -16 -39 -23 -36 -46 2 -24
-1 -28 -21 -28 -14 0 -30 7 -37 15 -33 40 -42 -7 -9 -49 21 -27 23 -27 108
-21 48 4 118 18 159 31 40 14 87 23 105 22 18 -2 33 2 34 7 3 11 -26 12 -109
2 -32 -4 -59 -3 -62 2 -4 5 24 12 61 16 38 4 82 10 98 15 17 5 66 11 110 15
184 14 277 43 304 92 11 22 18 269 8 300 -16 45 -45 53 -224 58 -92 2 -174 2
-180 -1z m281 -57 c16 -12 16 -19 6 -76 -6 -34 -8 -76 -5 -92 8 -36 -11 -96
-34 -109 -19 -10 -133 -34 -213 -46 -39 -5 -49 -3 -54 10 -3 9 0 23 7 32 7 9
34 53 60 97 83 144 95 158 127 151 48 -12 53 -22 46 -84 -4 -38 -3 -60 5 -64
7 -5 11 6 12 31 0 21 2 52 3 69 4 37 -1 47 -32 63 -12 7 -20 16 -17 22 9 13
68 11 89 -4z m-354 -327 c0 -5 -7 -10 -15 -10 -8 0 -15 5 -15 10 0 6 7 10 15
10 8 0 15 -4 15 -10z"/>
<path d="M2110 3134 c0 -8 5 -12 10 -9 6 4 8 11 5 16 -9 14 -15 11 -15 -7z"/>
<path d="M2827 3369 c-36 -21 -3 -57 44 -48 24 5 69 -11 69 -24 0 -6 11 -35
24 -64 14 -29 35 -99 47 -155 13 -57 32 -116 44 -133 11 -16 26 -42 32 -56 8
-19 22 -28 47 -33 20 -4 40 -4 45 -1 10 5 -32 151 -56 198 -22 42 -83 228 -83
253 0 19 5 21 48 19 64 -4 99 -21 105 -54 7 -31 44 -54 87 -53 39 1 50 9 50
34 0 26 -36 85 -60 98 -10 6 -85 10 -167 10 -81 0 -154 4 -162 9 -9 6 -24 6
-38 0 -15 -5 -31 -5 -41 0 -11 6 -24 6 -35 0z"/>
<path d="M1825 3362 c-10 -11 -4 -22 11 -22 24 0 11 -80 -16 -99 -11 -7 -20
-19 -20 -26 0 -7 -16 -32 -35 -55 -19 -23 -35 -46 -35 -50 0 -5 -3 -16 -7 -26
-13 -34 16 -4 60 64 58 87 107 176 107 195 0 14 -54 30 -65 19z"/>
<path d="M2747 3304 c-9 -10 4 -34 19 -34 8 0 14 4 14 9 0 12 -26 32 -33 25z"/>
<path d="M3110 3284 c0 -3 9 -13 20 -22 11 -10 26 -35 33 -57 13 -38 17 -40
60 -45 31 -4 47 -2 47 5 0 7 -12 10 -30 7 -38 -5 -60 12 -60 48 0 15 -8 34
-17 42 -20 17 -53 30 -53 22z"/>
<path d="M2890 3242 c0 -21 28 -106 55 -167 7 -16 18 -49 24 -72 13 -49 33
-68 21 -20 -23 94 -43 163 -50 172 -4 6 -10 26 -14 46 -8 43 -36 75 -36 41z"/>
<path d="M401 3086 c-24 -16 -33 -33 -41 -76 -6 -30 -18 -75 -26 -99 -26 -80
-23 -84 73 -101 26 -4 62 -13 78 -18 17 -6 65 -17 108 -25 l78 -14 17 25 c16
25 23 78 26 200 1 69 -18 87 -106 96 -35 4 -88 13 -120 21 -53 12 -58 12 -87
-9z m82 -117 c31 -7 64 -20 74 -31 17 -19 16 -19 -47 -13 -67 7 -115 28 -105
45 8 12 10 12 78 -1z m147 -45 c0 -9 -7 -14 -17 -12 -25 5 -28 28 -4 28 12 0
21 -6 21 -16z"/>
<path d="M4372 3048 c3 -38 6 -43 28 -46 41 -4 54 11 46 52 -6 33 -10 36 -42
36 l-35 0 3 -42z"/>
<path d="M2793 2993 c-22 -8 -14 -22 13 -25 15 -2 32 -11 38 -21 6 -11 32 -41
59 -69 26 -28 47 -55 47 -60 0 -5 -16 -24 -35 -41 -19 -17 -35 -37 -35 -46 0
-12 3 -11 18 3 9 10 32 26 50 37 17 10 32 26 32 35 0 9 -20 40 -45 68 -25 29
-45 58 -45 63 0 6 -11 22 -25 37 -23 25 -45 31 -72 19z"/>
<path d="M4655 2969 c-16 -5 -50 -9 -75 -9 -25 0 -74 -3 -110 -7 l-65 -8 3
-94 c1 -51 7 -102 13 -112 9 -17 13 -17 42 -6 29 12 32 17 29 50 -3 30 0 37
15 38 43 4 93 10 173 22 l85 13 -2 29 c-1 17 -5 45 -8 63 -5 28 -9 32 -38 31
-18 0 -45 -5 -62 -10z"/>
<path d="M2078 2943 c-16 -2 -28 -9 -28 -14 0 -12 60 -2 75 12 9 9 3 10 -47 2z"/>
<path d="M3004 2901 c3 -17 9 -44 12 -61 5 -27 9 -30 45 -30 24 0 38 4 34 10
-3 6 -13 10 -21 10 -22 0 -54 38 -54 64 0 14 -5 28 -11 32 -8 4 -9 -3 -5 -25z"/>
<path d="M1848 2873 c-16 -2 -28 -8 -28 -12 0 -23 192 -91 257 -91 31 0 120
-27 139 -41 14 -11 70 0 84 16 7 9 6 15 -2 22 -22 17 -80 33 -120 33 -37 0
-101 15 -233 56 -27 8 -54 17 -60 18 -5 2 -22 1 -37 -1z"/>
<path d="M4426 2689 c-25 -79 -9 -112 49 -107 l40 3 -3 49 c-1 27 -3 51 -5 52
-1 1 -19 5 -39 9 -28 5 -39 4 -42 -6z"/>
<path d="M388 2565 c-2 -3 -3 -49 -2 -102 2 -54 3 -106 4 -115 0 -12 8 -18 25
-18 20 0 25 6 31 36 8 42 -3 159 -17 185 -9 18 -30 25 -41 14z"/>
<path d="M2270 2389 c-8 -12 -23 -31 -34 -42 -29 -31 -79 -138 -84 -183 -4
-36 3 -55 42 -127 25 -47 46 -92 46 -101 0 -8 10 -37 23 -65 20 -45 30 -55 92
-89 39 -20 81 -41 95 -45 48 -15 137 -9 184 12 25 12 47 21 50 21 10 0 53 45
65 68 21 39 2 39 -32 0 -38 -44 -137 -82 -190 -73 -85 14 -184 66 -215 113
-14 21 -14 23 4 28 10 3 34 24 52 46 29 36 32 47 31 102 0 69 -17 127 -38 134
-12 4 -13 -11 -7 -92 7 -99 1 -128 -29 -140 -23 -8 -55 11 -55 34 0 10 -11 32
-24 47 -51 60 -45 160 16 291 30 64 35 100 8 61z"/>
<path d="M430 1451 c14 -43 56 -118 89 -158 17 -20 38 -52 46 -70 8 -17 28
-45 43 -61 15 -17 36 -42 47 -57 29 -41 119 -139 207 -228 43 -43 78 -82 78
-87 0 -5 13 -16 30 -25 16 -8 48 -33 70 -55 22 -22 45 -40 50 -40 5 0 15 -6
22 -13 26 -25 93 -74 110 -80 9 -3 48 -29 86 -56 39 -28 76 -51 83 -51 8 0 34
-11 58 -25 57 -33 63 -32 15 3 -22 16 -66 53 -99 83 -33 30 -89 76 -125 101
-36 25 -84 61 -107 79 -22 19 -55 45 -73 59 -79 61 -290 264 -290 279 0 4 -20
22 -45 41 -53 40 -92 93 -109 149 -11 38 -21 54 -88 135 -16 19 -28 38 -28 43
0 5 -18 21 -39 35 l-39 25 8 -26z"/>
<path d="M1539 392 c8 -15 21 -22 42 -22 17 0 45 -7 62 -14 50 -23 148 -57
192 -67 22 -4 63 -17 90 -28 28 -10 64 -22 80 -25 29 -5 76 -15 185 -38 84
-18 624 -19 675 -2 22 8 52 14 67 14 15 0 30 5 33 10 3 6 21 10 38 10 36 1
122 22 133 33 12 12 -263 -4 -366 -21 -19 -3 -136 -5 -260 -4 -181 1 -247 5
-340 22 -170 31 -188 35 -270 58 -154 43 -187 51 -260 65 -41 7 -83 17 -94 22
-16 7 -17 6 -7 -13z"/>
<path d="M3288 303 c7 -3 16 -2 19 1 4 3 -2 6 -13 5 -11 0 -14 -3 -6 -6z"/>
<path d="M3168 273 c6 -2 18 -2 25 0 6 3 1 5 -13 5 -14 0 -19 -2 -12 -5z"/>
</g>
</svg>
